<svg width="53" height="52" viewBox="0 0 53 52" fill="none" xmlns="http://www.w3.org/2000/svg">
<rect x="0.5" width="52" height="52" rx="26" fill="#BD9D50"/>
<g clip-path="url(#clip0_5_3941)">
<path d="M23.5 26C20.191 26 17.5 23.309 17.5 20C17.5 16.691 20.191 14 23.5 14C26.809 14 29.5 16.691 29.5 20C29.5 23.309 26.809 26 23.5 26ZM37.196 33.134L36.222 32.572C36.388 32.075 36.5 31.553 36.5 31C36.5 30.447 36.389 29.925 36.222 29.428L37.196 28.866C37.674 28.59 37.838 27.978 37.562 27.5C37.285 27.021 36.675 26.856 36.196 27.134L35.223 27.696C34.518 26.902 33.579 26.321 32.5 26.102V25.001C32.5 24.449 32.052 24.001 31.5 24.001C30.948 24.001 30.5 24.449 30.5 25.001V26.102C29.421 26.322 28.482 26.903 27.777 27.696L26.804 27.134C26.324 26.857 25.714 27.021 25.438 27.5C25.162 27.979 25.326 28.59 25.804 28.866L26.778 29.428C26.612 29.925 26.5 30.447 26.5 31C26.5 31.553 26.611 32.075 26.778 32.572L25.804 33.134C25.326 33.41 25.162 34.022 25.438 34.5C25.624 34.821 25.959 35 26.305 35C26.474 35 26.646 34.957 26.804 34.866L27.777 34.304C28.482 35.098 29.421 35.679 30.5 35.898V36.999C30.5 37.551 30.948 37.999 31.5 37.999C32.052 37.999 32.5 37.551 32.5 36.999V35.898C33.579 35.678 34.518 35.097 35.223 34.304L36.196 34.866C36.354 34.957 36.526 35 36.695 35C37.041 35 37.377 34.821 37.562 34.5C37.838 34.021 37.674 33.41 37.196 33.134ZM31.5 32.5C30.673 32.5 30 31.827 30 31C30 30.173 30.673 29.5 31.5 29.5C32.327 29.5 33 30.173 33 31C33 31.827 32.327 32.5 31.5 32.5ZM22.5 31C22.5 29.956 22.687 28.957 23.014 28.025C18.278 28.279 14.5 32.202 14.5 37C14.5 37.552 14.948 38 15.5 38H25.849C23.808 36.35 22.5 33.829 22.5 31Z" fill="white"/>
</g>
<defs>
<clipPath id="clip0_5_3941">
<rect width="24" height="24" fill="white" transform="translate(14.5 14)"/>
</clipPath>
</defs>
</svg>
