<svg width="52" height="52" viewBox="0 0 52 52" fill="none" xmlns="http://www.w3.org/2000/svg">
<rect width="52" height="52" rx="26" fill="#BD9D50"/>
<path d="M30 14.3C30.7058 14.542 31.348 14.9398 31.879 15.464L33.535 17.122C34.0598 17.6523 34.458 18.2943 34.7 19H30V14.3ZM35 21V33C34.9984 34.3256 34.4711 35.5964 33.5338 36.5338C32.5964 37.4711 31.3256 37.9984 30 38H22C20.6744 37.9984 19.4036 37.4711 18.4662 36.5338C17.5289 35.5964 17.0016 34.3256 17 33V19C17.0016 17.6744 17.5289 16.4036 18.4662 15.4662C19.4036 14.5289 20.6744 14.0016 22 14H28V19C28 19.5304 28.2107 20.0391 28.5858 20.4142C28.9609 20.7893 29.4696 21 30 21H35ZM30.808 31.413C30.7308 31.3062 30.6334 31.2158 30.5212 31.1468C30.4089 31.0779 30.2842 31.0317 30.1541 31.0111C30.024 30.9905 29.8912 30.9957 29.7631 31.0266C29.6351 31.0575 29.5144 31.1134 29.408 31.191C28.7361 31.6587 27.9513 31.938 27.135 32C26.8152 31.9913 26.5089 31.869 26.271 31.655C25.7491 31.2409 25.1051 31.0106 24.439 31C23.3297 31.1043 22.2731 31.5226 21.393 32.206C21.2838 32.2839 21.1913 32.3829 21.1212 32.4972C21.051 32.6115 21.0046 32.7388 20.9846 32.8714C20.9646 33.0041 20.9716 33.1394 21.005 33.2693C21.0384 33.3992 21.0976 33.5211 21.179 33.6276C21.2605 33.7342 21.3626 33.8233 21.4792 33.8896C21.5958 33.9559 21.7245 33.998 21.8577 34.0136C21.991 34.0291 22.126 34.0176 22.2547 33.9799C22.3834 33.9422 22.5032 33.879 22.607 33.794C23.1396 33.3769 23.7704 33.1035 24.439 33C24.685 33 24.81 33.078 25.139 33.3C25.7088 33.7501 26.4129 33.9965 27.139 34C28.3818 33.9432 29.5818 33.529 30.595 32.807C30.8075 32.6499 30.9491 32.4151 30.989 32.1539C31.029 31.8927 30.9639 31.6264 30.808 31.413ZM31 28C31 27.7348 30.8946 27.4804 30.7071 27.2929C30.5196 27.1054 30.2652 27 30 27H22C21.7348 27 21.4804 27.1054 21.2929 27.2929C21.1054 27.4804 21 27.7348 21 28C21 28.2652 21.1054 28.5196 21.2929 28.7071C21.4804 28.8946 21.7348 29 22 29H30C30.2652 29 30.5196 28.8946 30.7071 28.7071C30.8946 28.5196 31 28.2652 31 28ZM31 24C31 23.7348 30.8946 23.4804 30.7071 23.2929C30.5196 23.1054 30.2652 23 30 23H22C21.7348 23 21.4804 23.1054 21.2929 23.2929C21.1054 23.4804 21 23.7348 21 24C21 24.2652 21.1054 24.5196 21.2929 24.7071C21.4804 24.8946 21.7348 25 22 25H30C30.2652 25 30.5196 24.8946 30.7071 24.7071C30.8946 24.5196 31 24.2652 31 24Z" fill="white"/>
</svg>

