<svg width="16" height="16" viewBox="0 0 16 16" fill="none" xmlns="http://www.w3.org/2000/svg">
<path fill-rule="evenodd" clip-rule="evenodd" d="M2.00021 9.50009C2.27635 9.50009 2.50021 9.72395 2.50021 10.0001V12.6667C2.50021 12.8877 2.588 13.0996 2.74427 13.2559C2.90054 13.4122 3.11249 13.5 3.33349 13.5H12.6665C12.8875 13.5 13.0995 13.4122 13.2557 13.2559C13.412 13.0996 13.4998 12.8877 13.4998 12.6667V10.0001C13.4998 9.72395 13.7237 9.50009 13.9998 9.50009C14.2759 9.50009 14.4998 9.72395 14.4998 10.0001V12.6667C14.4998 13.1529 14.3067 13.6192 13.9628 13.963C13.619 14.3068 13.1527 14.5 12.6665 14.5H3.33349C2.84728 14.5 2.38097 14.3068 2.03716 13.963C1.69336 13.6192 1.50021 13.1529 1.50021 12.6667V10.0001C1.50021 9.72395 1.72406 9.50009 2.00021 9.50009Z" fill="white"/>
<path fill-rule="evenodd" clip-rule="evenodd" d="M4.31323 6.31401C4.50849 6.11875 4.82507 6.11875 5.02034 6.31401L8 9.29368L10.9797 6.31401C11.1749 6.11875 11.4915 6.11875 11.6868 6.31401C11.882 6.50927 11.882 6.82586 11.6868 7.02112L8.35356 10.3543C8.1583 10.5496 7.84171 10.5496 7.64645 10.3543L4.31323 7.02112C4.11797 6.82586 4.11797 6.50927 4.31323 6.31401Z" fill="white"/>
<path fill-rule="evenodd" clip-rule="evenodd" d="M8 1.50005C8.27614 1.50005 8.5 1.7239 8.5 2.00005V9.99977C8.5 10.2759 8.27614 10.4998 8 10.4998C7.72386 10.4998 7.5 10.2759 7.5 9.99977V2.00005C7.5 1.7239 7.72386 1.50005 8 1.50005Z" fill="white"/>
</svg>
