<svg width="25" height="25" viewBox="0 0 25 25" fill="none" xmlns="http://www.w3.org/2000/svg">
<path fill-rule="evenodd" clip-rule="evenodd" d="M6.37829 2.78206C10.3503 0.686031 14.3246 0.853236 18.2966 2.78276C18.7381 2.9972 19.1909 3.14593 19.4518 2.591C19.6806 2.10482 19.3394 1.83963 18.9238 1.62939C16.8168 0.563492 14.5854 -0.00547213 12.2064 0.000608047C9.91415 -0.0181002 7.77533 0.541042 5.77472 1.62191C5.35168 1.85015 4.95296 2.12563 5.27053 2.65788C5.55139 3.12863 5.97022 2.9972 6.37829 2.78206Z" fill="white"/>
<path fill-rule="evenodd" clip-rule="evenodd" d="M5.09063 20.2592C4.72091 20.2592 4.41994 20.5526 4.41994 20.9135C4.41994 21.2741 4.72091 21.5676 5.09063 21.5676C5.46058 21.5676 5.76132 21.2741 5.76132 20.9135C5.76132 20.5526 5.46058 20.2592 5.09063 20.2592Z" fill="white"/>
<path fill-rule="evenodd" clip-rule="evenodd" d="M13.8202 9.26144C13.8202 8.90084 13.5194 8.60736 13.1495 8.60736C12.7797 8.60736 12.479 8.90084 12.479 9.26144C12.479 9.62205 12.7797 9.91553 13.1495 9.91553C13.5194 9.91553 13.8202 9.62205 13.8202 9.26144Z" fill="white"/>
<path fill-rule="evenodd" clip-rule="evenodd" d="M21.0268 18.7668C20.6568 18.7668 20.3561 19.0603 20.3561 19.4209C20.3561 19.7815 20.6568 20.075 21.0268 20.075C21.3965 20.075 21.6972 19.7815 21.6972 19.4209C21.6972 19.0603 21.3965 18.7668 21.0268 18.7668Z" fill="white"/>
<path fill-rule="evenodd" clip-rule="evenodd" d="M15.9809 16.1118C15.6109 16.1118 15.3104 16.4053 15.3104 16.7659C15.3104 17.1265 15.6109 17.42 15.9809 17.42C16.3506 17.42 16.6516 17.1265 16.6516 16.7659C16.6516 16.4053 16.3506 16.1118 15.9809 16.1118Z" fill="white"/>
<path fill-rule="evenodd" clip-rule="evenodd" d="M15.9809 16.1118C15.6109 16.1118 15.3104 16.4053 15.3104 16.7659C15.3104 17.1265 15.6109 17.42 15.9809 17.42C16.3506 17.42 16.6516 17.1265 16.6516 16.7659C16.6516 16.4053 16.3506 16.1118 15.9809 16.1118Z" fill="white"/>
<path fill-rule="evenodd" clip-rule="evenodd" d="M24.0617 11.8096C23.6918 11.8096 23.391 12.1031 23.391 12.4637C23.391 12.8245 23.6918 13.1178 24.0617 13.1178C24.4314 13.1178 24.7324 12.8245 24.7324 12.4637C24.7324 12.1031 24.4314 11.8096 24.0617 11.8096Z" fill="white"/>
<path fill-rule="evenodd" clip-rule="evenodd" d="M23.7379 10.321C23.7379 9.96036 23.4372 9.66687 23.0672 9.66687C22.6975 9.66687 22.3968 9.96036 22.3968 10.321C22.3968 10.6818 22.6975 10.975 23.0672 10.975C23.4372 10.975 23.7379 10.6818 23.7379 10.321Z" fill="white"/>
<path fill-rule="evenodd" clip-rule="evenodd" d="M3.73683 4.65905C4.10655 4.65905 4.40752 4.3658 4.40752 4.00497C4.40752 3.64437 4.10655 3.35088 3.73683 3.35088C3.36711 3.35088 3.06614 3.64437 3.06614 4.00497C3.06614 4.3658 3.36711 4.65905 3.73683 4.65905Z" fill="white"/>
<path fill-rule="evenodd" clip-rule="evenodd" d="M1.25467 10.4081C1.00421 10.4081 0.787898 10.5444 0.672843 10.7432L0.670504 10.742C0.667932 10.7486 0.665359 10.7549 0.662787 10.7614C0.639168 10.8052 0.620226 10.8512 0.607364 10.9001C0.0358272 12.3804 4.76837e-05 13.9168 4.76837e-05 13.9168C4.76837e-05 14.2777 0.300783 14.5709 0.670504 14.5709C0.987375 14.5709 1.2521 14.3548 1.32178 14.0663L1.32295 14.066C1.32295 14.0646 1.32295 14.0635 1.32319 14.0623C1.33395 14.0155 1.34119 13.9671 1.34119 13.9168C1.34119 13.8941 1.33652 13.8724 1.33418 13.8502C1.42351 12.3809 1.87087 11.3199 1.87087 11.3199C1.90572 11.2408 1.92536 11.1536 1.92536 11.0622C1.92536 10.7016 1.62439 10.4081 1.25467 10.4081Z" fill="white"/>
<path fill-rule="evenodd" clip-rule="evenodd" d="M8.98208 6.34764C3.47157 8.49324 2.04974 13.6268 3.54711 18.6467C3.55529 18.6906 3.56792 18.733 3.58452 18.7734C3.68438 19.0124 3.92454 19.1817 4.2054 19.1817C4.24562 19.1817 4.28468 19.1768 4.32303 19.1703C4.40418 19.1562 4.47971 19.1268 4.548 19.087C4.7435 18.9727 4.87586 18.7659 4.87586 18.5276C4.87586 18.4851 4.87095 18.4434 4.863 18.4028C4.86066 18.3918 4.85692 18.3817 4.85411 18.3707C4.72175 17.8969 4.59477 17.4213 4.49819 16.9405C3.42691 11.6124 7.01678 7.04218 12.2846 7.04218C17.123 7.04218 20.3766 9.99013 20.3766 14.4252C20.3766 16.1898 19.6558 17.0691 18.3771 17.0429C18.375 17.0429 18.3732 17.0422 18.371 17.0422L18.3659 17.0427C18.3411 17.0422 18.3161 17.0436 18.2915 17.0422C18.2885 17.045 18.2866 17.048 18.2836 17.0509C17.9555 17.0932 17.7006 17.3652 17.7006 17.6963C17.7006 17.9975 17.9108 18.2484 18.195 18.3244C18.2034 18.3279 18.2125 18.3312 18.2284 18.3354L18.2324 18.3361C18.2378 18.337 18.2436 18.3375 18.249 18.3384C18.263 18.3403 18.2798 18.342 18.3007 18.3436C18.324 18.3457 18.347 18.3504 18.371 18.3504C18.3797 18.3504 18.3877 18.3483 18.3963 18.348C18.5317 18.352 18.6931 18.3504 18.6931 18.3504C20.7931 18.1881 21.5477 16.4814 21.5477 14.0161C21.5477 7.87002 14.8361 4.06827 8.98208 6.34764Z" fill="white"/>
<path fill-rule="evenodd" clip-rule="evenodd" d="M9.29441 4.59377C9.32233 4.58919 9.34733 4.57877 9.37441 4.57211C9.3465 4.57919 9.31941 4.58669 9.2915 4.59419L9.29441 4.59377Z" fill="white"/>
<path fill-rule="evenodd" clip-rule="evenodd" d="M9.82466 3.82904C9.82255 3.81828 9.81881 3.80823 9.81624 3.7977C9.74468 3.51731 9.48674 3.30825 9.17758 3.30825C9.13713 3.30825 9.09784 3.31316 9.05949 3.31994C9.00898 3.33421 8.96033 3.34964 8.91076 3.36437C7.83433 3.68545 6.94218 4.12323 6.02688 4.65898C4.76548 5.39749 3.76132 6.23094 2.70173 7.56087C2.55042 7.75075 2.28032 8.00028 2.10189 8.26827C2.01209 8.36649 1.95363 8.4909 1.93773 8.6284C1.90078 8.80754 1.94311 8.98667 2.11943 9.15481C2.12575 9.16136 2.13276 9.1672 2.13931 9.17352C2.16293 9.1948 2.18842 9.21584 2.21672 9.23689C2.21976 9.23923 2.2228 9.24087 2.22584 9.2432C2.93885 9.75745 3.39183 8.78579 3.70963 8.38473C5.38098 6.27654 6.99597 5.17767 9.29147 4.58438C9.30714 4.58041 9.32234 4.57597 9.33824 4.57199C9.40068 4.55632 9.46055 4.53387 9.5148 4.5023C9.70726 4.38982 9.83752 4.1866 9.83752 3.95205C9.83752 3.90995 9.83261 3.86903 9.82466 3.82904Z" fill="white"/>
<path fill-rule="evenodd" clip-rule="evenodd" d="M22.1988 7.8051C22.167 7.74804 22.1289 7.69496 22.0816 7.64982C19.6407 4.53607 16.3791 3.02982 12.4705 2.95031C12.2972 2.95265 11.8592 2.95031 11.8082 2.95031C11.4385 2.95031 11.1375 3.2438 11.1375 3.6044C11.1375 3.96523 11.4385 4.25849 11.8082 4.25849C15.248 4.07982 18.713 5.46938 21.0555 8.47088C21.063 8.48234 21.0728 8.49286 21.081 8.50362C21.203 8.66241 21.3955 8.7667 21.6141 8.7667C21.9829 8.7667 22.2825 8.47415 22.2825 8.11472C22.2825 8.00224 22.2505 7.89747 22.1988 7.8051Z" fill="white"/>
<path fill-rule="evenodd" clip-rule="evenodd" d="M18.7903 14.4269C18.78 14.2208 18.751 14.0146 18.7132 13.8114C18.3972 12.1183 17.4197 10.5868 16.1115 9.63755C16.2233 9.72735 16.3061 9.85082 16.3421 9.99231C16.3447 10.0035 16.3489 10.0138 16.3512 10.025C16.3592 10.0662 16.3641 10.1088 16.3641 10.1523C16.3641 10.395 16.2294 10.6055 16.0304 10.7217C15.9607 10.7624 15.8838 10.7923 15.801 10.8066C15.7622 10.8134 15.7224 10.8183 15.6815 10.8183C15.5454 10.8183 15.4196 10.7785 15.3132 10.7114C16.3863 11.5977 17.2932 13.0663 17.4534 14.5454C17.5048 15.0199 17.5537 15.5047 18.1573 15.4853C18.8425 15.4635 18.8144 14.9128 18.7903 14.4269Z" fill="white"/>
<path fill-rule="evenodd" clip-rule="evenodd" d="M15.8011 10.8066C15.8838 10.7921 15.9605 10.7624 16.0302 10.7217C16.2295 10.6055 16.3642 10.395 16.3642 10.1523C16.3642 10.1088 16.3593 10.0662 16.3511 10.0248C16.3487 10.0138 16.3448 10.0036 16.3422 9.99233C16.3059 9.85085 16.2234 9.72737 16.1114 9.63757C16.1027 9.63126 16.0941 9.62471 16.0854 9.61863C15.9725 9.53608 15.8333 9.48627 15.6813 9.48627C15.3048 9.48627 14.9985 9.7849 14.9985 10.1523C14.9985 10.1939 15.0034 10.2341 15.0111 10.2734C15.0195 10.3181 15.0321 10.3611 15.0492 10.4023C15.0829 10.4827 15.1332 10.5545 15.1942 10.6158C15.2342 10.6466 15.2737 10.6787 15.313 10.7114C15.4194 10.7785 15.5454 10.8183 15.6813 10.8183C15.7225 10.8183 15.762 10.8134 15.8011 10.8066Z" fill="white"/>
<path fill-rule="evenodd" clip-rule="evenodd" d="M15.406 10.7862C15.3356 10.7279 15.2652 10.6708 15.1943 10.6158C15.2585 10.68 15.3285 10.7375 15.406 10.7862Z" fill="white"/>
<path fill-rule="evenodd" clip-rule="evenodd" d="M13.0032 11.4665C13.0012 11.466 12.9999 11.4656 12.9978 11.4652C12.9999 11.466 13.002 11.4665 13.0041 11.4673L13.0032 11.4665Z" fill="white"/>
<path fill-rule="evenodd" clip-rule="evenodd" d="M15.7027 22.1783C15.3325 22.0478 14.9474 21.9456 14.5961 21.777C11.763 20.4164 10.2388 18.1904 10.0926 15.1143C10.0274 13.739 10.9392 12.7739 12.2137 12.7248L12.2321 12.7184C12.3095 12.7061 12.3825 12.6806 12.4489 12.6448C12.654 12.5346 12.7948 12.3244 12.7948 12.0805C12.7948 11.8382 12.6559 11.6292 12.4531 11.5183C12.3636 11.4697 12.2628 11.4397 12.1543 11.436C12.1465 11.4358 12.1393 11.4337 12.1316 11.4337C12.1166 11.4337 12.1023 11.4372 12.0876 11.4381C10.3819 11.5452 9.00823 12.7673 8.7842 14.427C8.28001 18.1654 11.5294 22.6434 15.2876 23.3936C15.7158 23.4792 16.1031 23.4563 16.2348 22.9752C16.3505 22.5529 16.0877 22.3139 15.7027 22.1783Z" fill="white"/>
<path fill-rule="evenodd" clip-rule="evenodd" d="M15.7225 14.2237C15.7162 14.1725 15.7031 14.1239 15.6856 14.0769C15.5614 13.5991 15.3687 13.0397 15.0923 12.6607C15.0717 12.6282 15.0481 12.5978 15.0221 12.5692C15.0177 12.5638 15.0137 12.5575 15.0092 12.5524L15.0055 12.5496C14.8834 12.4252 14.7125 12.3468 14.5224 12.3468C14.1524 12.3468 13.8517 12.6403 13.8517 13.0009C13.8517 13.0697 13.8655 13.1344 13.8858 13.1967L13.8832 13.1992C13.8832 13.1992 13.8872 13.2076 13.894 13.2228C13.9024 13.2455 13.9122 13.2673 13.923 13.2886C13.9927 13.4499 14.1466 13.8297 14.3276 14.4169C14.3374 14.4772 14.3545 14.535 14.3795 14.5888C14.4903 14.8282 14.7359 14.9957 15.0221 14.9957C15.1454 14.9957 15.2592 14.9622 15.36 14.908C15.5784 14.7908 15.7283 14.5668 15.7283 14.3068C15.7283 14.2787 15.726 14.2511 15.7225 14.2237Z" fill="white"/>
<path fill-rule="evenodd" clip-rule="evenodd" d="M11.5694 23.1113L11.5701 23.1104C11.5678 23.1092 11.5657 23.108 11.5634 23.1066C11.5566 23.1022 11.5491 23.0984 11.5421 23.0945C10.9203 22.7516 9.88779 21.743 9.82208 21.693C9.82138 21.692 9.82068 21.6913 9.81998 21.6906C9.77157 21.6542 9.71895 21.6221 9.65932 21.5992C9.31532 21.4668 8.92502 21.6319 8.78939 21.9678C8.71455 22.1527 8.7349 22.3506 8.82423 22.5136L8.83265 22.5456C9.664 23.641 10.9836 24.1856 10.9836 24.1856C11.3061 24.3096 11.6716 24.1547 11.7988 23.8402C11.9081 23.5701 11.8049 23.2694 11.5694 23.1113Z" fill="#E82227"/>
<path fill-rule="evenodd" clip-rule="evenodd" d="M10.7137 8.78859C10.6064 8.78859 10.4116 8.85945 10.4116 8.85945C7.64557 9.66952 5.77848 12.1622 5.80725 15.1852C5.86314 17.0761 6.69379 19.3756 7.24404 20.3372C7.26953 20.3884 7.31396 20.4632 7.34132 20.5086C7.35348 20.5289 7.36261 20.5437 7.36471 20.547C7.3771 20.5694 7.3909 20.5935 7.40493 20.6178C7.52654 20.7864 7.72718 20.8977 7.95425 20.8977C8.07141 20.8977 8.18016 20.8657 8.27627 20.814C8.4844 20.7025 8.62705 20.4892 8.62705 20.2413C8.62705 20.1382 8.60109 20.0421 8.55713 19.9553C8.54356 19.9326 8.53094 19.9097 8.51737 19.887C7.58266 18.3282 7.10841 16.6077 7.16874 14.7018C7.2389 12.4832 8.81974 10.6877 10.8421 10.0841C10.8823 10.0767 10.9209 10.0647 10.9583 10.0502C11.0182 10.0339 11.1955 9.92231 11.2125 9.87554C11.3182 9.76002 11.3842 9.60942 11.3842 9.44268C11.3842 9.08208 11.0834 8.78859 10.7137 8.78859Z" fill="#00AC75"/>
<path fill-rule="evenodd" clip-rule="evenodd" d="M8.51735 19.8872C8.54152 19.9277 8.56402 19.9685 8.58818 20.0089C8.56693 19.9668 8.5436 19.9264 8.51735 19.8872Z" fill="white"/>
<path fill-rule="evenodd" clip-rule="evenodd" d="M7.34135 20.5085C7.3726 20.5773 7.41051 20.6423 7.45468 20.7031C7.42968 20.6602 7.4051 20.6169 7.3826 20.5773C7.37926 20.5715 7.36301 20.5448 7.34135 20.5085Z" fill="white"/>
<path fill-rule="evenodd" clip-rule="evenodd" d="M18.8805 19.8174C18.7893 19.7675 18.6869 19.7371 18.5763 19.7336C18.5384 19.7374 18.5005 19.7397 18.4629 19.743C15.5891 19.9869 13.2543 18.1046 13.0052 15.3024C12.9622 14.8162 12.9779 14.2481 12.2943 14.2977C11.6641 14.3438 11.6587 14.9623 11.6912 15.452C11.901 18.6168 14.6282 21.0631 17.9344 21.0977C18.1493 21.0977 18.367 21.0769 18.5847 21.047C18.6275 21.0411 18.6703 21.0353 18.7133 21.0285C18.7706 21.014 18.8254 20.9927 18.8763 20.9651C19.0854 20.8531 19.2287 20.6387 19.2287 20.3898C19.2287 20.1431 19.0873 19.9301 18.8805 19.8174Z" fill="white"/>
</svg>
