<svg width="28" height="28" viewBox="0 0 28 28" fill="none" xmlns="http://www.w3.org/2000/svg">
<rect width="28" height="28" rx="4" fill="white"/>
<g clip-path="url(#clip0_181_1526)">
<path d="M20.3893 17.0558V17.3333C20.3893 18.2542 19.6968 19 18.8418 19H18.326C17.471 19 16.7785 18.2542 16.7785 17.3333C16.7785 18.2542 16.086 19 15.231 19H14.7151C13.8601 19 13.1676 18.2542 13.1676 17.3333L14.1993 14.8333H22.9693L24.001 17.3333C24.001 18.2542 23.3085 19 22.4535 19H21.9376C21.0826 19 20.3893 18.2542 20.3893 17.3333M16.501 9C16.501 6.2425 14.2585 4 11.501 4C8.74348 4 6.50014 6.2425 6.50014 9C6.50014 11.7575 8.74264 14 11.5001 14C14.2576 14 16.501 11.7575 16.501 9ZM22.4535 20.6667H21.9376C21.3768 20.6667 20.8493 20.5167 20.391 20.2542C19.931 20.5167 19.4035 20.6667 18.8435 20.6667H18.3276C17.7668 20.6667 17.2393 20.5167 16.7801 20.2542C16.321 20.5167 15.7935 20.6667 15.2335 20.6667H14.7176C14.471 20.6667 14.2335 20.6317 14.0035 20.5767V24H23.1701V20.5767C22.9393 20.6317 22.7018 20.6667 22.456 20.6667H22.4535ZM11.501 17.3333V17.0033L12.0526 15.6667H8.16764C5.86681 15.6667 4.00098 17.5325 4.00098 19.8333V24H12.3343V19.5517C11.8218 18.9608 11.501 18.1883 11.501 17.3333Z" fill="#BD9D50"/>
</g>
<defs>
<clipPath id="clip0_181_1526">
<rect width="20" height="20" fill="white" transform="translate(4 4)"/>
</clipPath>
</defs>
</svg>
